# xmcd
#
# Track frame offsets:
#	150
#	14022
#	30642
#	50397
#	66437
#	81400
#	97137
#	114920
#	130487
#	146685
#	163530
#	179080
#	191037
#	201565
#	214372
#	228415
#	241175
#	255510
#
# Disc length: 3560
#
# Revision: 1
# Processed by: cddbd v1.5.1PL0 Copyright (c) Steve Scherf et al.
# Submitted via: VisiTrax 2.9.5.180 - For more info visit www.synapsa.com
# Normalized: r0:DSETVAR1
#
DISCID=160de612
DTITLE=Various Artist - CDX 146 October 1996
DYEAR=1996
DGENRE=
TTITLE0=Keith Perry - All I give a darn about is ou
TTITLE1=Larry Syewart - Always a woman
TTITLE2=Gene Watson - Change her mind
TTITLE3=George Ducas - Every time she passes by
TTITLE4=Trisha Yearwood - Everybody knows
TTITLE5=Lorrie Morgan - Good as I was to you
TTITLE6=Crystal Bernard - Have we forgotten what love is
TTITLE7=Marty Haggard - Hello God
TTITLE8=Tony Toliver - He's on the way home
TTITLE9=Billy Dean - I wouldn't be a man
TTITLE10=Blackhawk - King of the world
TTITLE11=Royal Wade Kimes - Leave my mama out of this
TTITLE12=Three Hanks - Move it on over
TTITLE13=Ray Vega - Remember when
TTITLE14=M C Potts - Straight to you
TTITLE15=Roger Brown and Swing City - Swing city
TTITLE16=Confederate Railroad - The one you love the most
TTITLE17=Dixie Cadillacs - My future ex-wife
EXTD=
EXTT0=
EXTT1=
EXTT2=
EXTT3=
EXTT4=
EXTT5=
EXTT6=
EXTT7=
EXTT8=
EXTT9=
EXTT10=
EXTT11=
EXTT12=
EXTT13=
EXTT14=
EXTT15=
EXTT16=
EXTT17=
PLAYORDER=
